Coordinates
version=1
nRows=8
nColumns=40
inDegrees=yes

Units are S.I. units (second, meters, Newtons, ...)
If the header above contains a line with 'inDegrees', this indicates whether rotational values are in degrees (yes) or radians (no).

endheader
time	pelvis_tilt	pelvis_list	pelvis_rotation	pelvis_tx	pelvis_ty	pelvis_tz	hip_flexion_r	hip_adduction_r	hip_rotation_r	knee_angle_r	knee_angle_r_beta	ankle_angle_r	subtalar_angle_r	mtp_angle_r	hip_flexion_l	hip_adduction_l	hip_rotation_l	knee_angle_l	knee_angle_l_beta	ankle_angle_l	subtalar_angle_l	mtp_angle_l	lumbar_extension	lumbar_bending	lumbar_rotation	arm_flex_r	arm_add_r	arm_rot_r	elbow_flex_r	pro_sup_r	wrist_flex_r	wrist_dev_r	arm_flex_l	arm_add_l	arm_rot_l	elbow_flex_l	pro_sup_l	wrist_flex_l	wrist_dev_l
      3.87500000	     -1.96087130	     -3.52556472	     -6.02426839	     -0.30069758	      0.83447546	     -0.98638252	      4.38421241	     -6.09227154	     -1.51938965	     82.97121838	      1.44812095	    -21.08324450	      0.00000000	      0.00000000	     42.78138312	     -7.84165705	     -9.97889018	     83.42680915	      1.45607250	     28.82524314	      0.00000000	      0.00000000	    -13.05940985	     -5.11294532	     11.00740452	     89.91397210	    -16.70771323	     28.15495791	     37.25843938	     84.92676174	      0.00000000	      0.00000000	     89.94084073	    -18.67709163	     38.74961154	     48.51076960	     86.24477112	      0.00000000	      0.00000000
      3.88000000	     -1.96656850	     -3.50272896	     -6.05409094	     -0.30093186	      0.83407357	     -0.98638370	      4.39510224	     -6.09072133	     -1.47850184	     82.98799884	      1.44841382	    -21.07858246	      0.00000000	      0.00000000	     42.83903158	     -7.79721762	     -9.96587222	     83.49233372	      1.45721612	     28.90408173	      0.00000000	      0.00000000	    -13.09623010	     -5.13175335	     11.03962592	     89.91437097	    -16.67973130	     28.02061824	     37.30877139	     84.70855779	      0.00000000	      0.00000000	     89.94110900	    -18.63388938	     38.60464583	     48.51422022	     86.27567244	      0.00000000	      0.00000000
      3.88500000	     -2.04927716	     -3.51004785	     -6.08716632	     -0.30116743	      0.83369866	     -0.98631189	      4.48571500	     -6.01141196	     -1.40782264	     82.99111773	      1.44846825	    -21.08622999	      0.00000000	      0.00000000	     42.98166766	     -7.77899167	     -9.90363756	     83.53653773	      1.45798763	     28.93111753	      0.00000000	      0.00000000	    -13.03706931	     -5.12332387	     11.15029761	     89.91473128	    -16.76755084	     28.05619447	     37.33997977	     84.48878921	      0.00000000	      0.00000000	     89.94120241	    -18.52674906	     38.55078695	     48.48153510	     86.34230359	      0.00000000	      0.00000000
      3.89000000	     -2.01332574	     -3.50957050	     -6.11160827	     -0.30130545	      0.83334828	     -0.98633418	      4.42938702	     -5.99685756	     -1.38445457	     82.99332466	      1.44850677	    -21.05118961	      0.00000000	      0.00000000	     42.98889896	     -7.73540038	     -9.85905140	     83.58551536	      1.45884245	     28.96444633	      0.00000000	      0.00000000	    -13.10063533	     -5.11385707	     11.21838759	     89.91528719	    -16.79379387	     28.00728644	     37.39577499	     84.43303484	      0.00000000	      0.00000000	     89.94152106	    -18.44825850	     38.45827130	     48.44417747	     86.30603366	      0.00000000	      0.00000000
      3.89500000	     -2.03827691	     -3.49795526	     -6.18008359	     -0.30151046	      0.83296450	     -0.98625392	      4.47127936	     -5.95105000	     -1.27716335	     83.00669772	      1.44874018	    -21.08385491	      0.00000000	      0.00000000	     43.06276668	     -7.71391829	     -9.83775618	     83.66210758	      1.46017924	     29.04537333	      0.00000000	      0.00000000	    -13.10875622	     -5.11742943	     11.25230636	     89.91573773	    -16.66455072	     27.66540103	     37.33274540	     84.75978149	      0.00000000	      0.00000000	     89.94160066	    -18.53653956	     38.48466988	     48.57130550	     86.26051063	      0.00000000	      0.00000000
      3.90000000	     -2.14620402	     -3.48577914	     -6.24014134	     -0.30186498	      0.83255880	     -0.98623199	      4.62317533	     -5.90505356	     -1.20221989	     83.05537433	      1.44958974	    -21.08444221	      0.00000000	      0.00000000	     43.24325992	     -7.66787725	     -9.76739887	     83.71735010	      1.46114340	     29.04551847	      0.00000000	      0.00000000	    -13.03055923	     -5.13130450	     11.38183378	     89.91619892	    -16.78290023	     27.73046677	     37.44259056	     84.48426567	      0.00000000	      0.00000000	     89.94176211	    -18.39163186	     38.36389048	     48.49730356	     86.31437209	      0.00000000	      0.00000000
      3.90500000	     -2.11604013	     -3.40284364	     -6.31671422	     -0.30208030	      0.83241768	     -0.98614987	      4.59959117	     -5.95083078	     -1.10565564	     83.00577648	      1.44872410	    -21.25060219	      0.00000000	      0.00000000	     43.22313555	     -7.57011879	     -9.80226531	     83.71123478	      1.46103667	     29.06933349	      0.00000000	      0.00000000	    -13.09710951	     -5.22663862	     11.43572215	     89.91630433	    -16.71916437	     27.51477755	     37.46226053	     84.77893952	      0.00000000	      0.00000000	     89.94197919	    -18.41409095	     38.36587337	     48.54893197	     86.25743437	      0.00000000	      0.00000000
      3.91000000	     -2.12740313	     -3.39271201	     -6.34235328	     -0.30234339	      0.83208681	     -0.98621591	      4.62851465	     -5.93105283	     -1.04048907	     83.05417323	      1.44956878	    -21.11388741	      0.00000000	      0.00000000	     43.30019881	     -7.49574312	     -9.73079353	     83.77875830	      1.46221518	     29.09010821	      0.00000000	      0.00000000	    -13.11200899	     -5.21398756	     11.49160357	     89.91670573	    -16.70337684	     27.43156332	     37.44964890	     84.76799517	      0.00000000	      0.00000000	     89.94216662	    -18.39287402	     38.34438805	     48.55814168	     86.21812202	      0.00000000	      0.00000000
